<svg id="visual" viewBox="0 0 900 600" width="900" height="600" xmlns="http://www.w3.org/2000/svg" xmlns:xlink="http://www.w3.org/1999/xlink" version="1.1"><g stroke-width="1" stroke-linejoin="bevel"><path d="M468 278L564 271L493 206Z" fill="#112e42" stroke="#112e42"></path><path d="M564 271L576 177L493 206Z" fill="#1d4e6b" stroke="#1d4e6b"></path><path d="M388 173L401 335L468 278Z" fill="#15384f" stroke="#15384f"></path><path d="M468 278L534 406L564 271Z" fill="#1d4e6b" stroke="#1d4e6b"></path><path d="M576 177L580 128L493 206Z" fill="#1d4e6b" stroke="#1d4e6b"></path><path d="M423 63L388 173L493 206Z" fill="#15384f" stroke="#15384f"></path><path d="M493 206L388 173L468 278Z" fill="#19435d" stroke="#19435d"></path><path d="M420 391L534 406L468 278Z" fill="#00101c" stroke="#00101c"></path><path d="M578 428L668 293L564 271Z" fill="#1d4e6b" stroke="#1d4e6b"></path><path d="M564 271L668 293L576 177Z" fill="#205a7a" stroke="#205a7a"></path><path d="M576 177L695 95L580 128Z" fill="#0c2435" stroke="#0c2435"></path><path d="M401 335L420 391L468 278Z" fill="#277297" stroke="#277297"></path><path d="M580 128L529 73L493 206Z" fill="#112e42" stroke="#112e42"></path><path d="M517 474L578 428L534 406Z" fill="#0c2435" stroke="#0c2435"></path><path d="M534 406L578 428L564 271Z" fill="#205a7a" stroke="#205a7a"></path><path d="M668 293L720 204L576 177Z" fill="#246688" stroke="#246688"></path><path d="M580 128L634 0L529 73Z" fill="#081a28" stroke="#081a28"></path><path d="M529 73L423 63L493 206Z" fill="#1d4e6b" stroke="#1d4e6b"></path><path d="M420 391L517 474L534 406Z" fill="#19435d" stroke="#19435d"></path><path d="M303 76L293 208L388 173Z" fill="#246688" stroke="#246688"></path><path d="M388 173L293 208L401 335Z" fill="#1d4e6b" stroke="#1d4e6b"></path><path d="M401 335L291 416L420 391Z" fill="#277297" stroke="#277297"></path><path d="M517 474L609 465L578 428Z" fill="#246688" stroke="#246688"></path><path d="M578 428L731 367L668 293Z" fill="#246688" stroke="#246688"></path><path d="M668 293L804 311L720 204Z" fill="#081a28" stroke="#081a28"></path><path d="M293 208L292 329L401 335Z" fill="#1d4e6b" stroke="#1d4e6b"></path><path d="M420 391L392 468L517 474Z" fill="#0c2435" stroke="#0c2435"></path><path d="M720 204L695 95L576 177Z" fill="#112e42" stroke="#112e42"></path><path d="M609 465L731 367L578 428Z" fill="#205a7a" stroke="#205a7a"></path><path d="M291 416L392 468L420 391Z" fill="#081a28" stroke="#081a28"></path><path d="M634 0L494 0L529 73Z" fill="#1d4e6b" stroke="#1d4e6b"></path><path d="M529 73L494 0L423 63Z" fill="#19435d" stroke="#19435d"></path><path d="M494 0L424 0L423 63Z" fill="#0c2435" stroke="#0c2435"></path><path d="M423 63L303 76L388 173Z" fill="#19435d" stroke="#19435d"></path><path d="M227 408L291 416L292 329Z" fill="#277297" stroke="#277297"></path><path d="M292 329L291 416L401 335Z" fill="#19435d" stroke="#19435d"></path><path d="M424 0L303 76L423 63Z" fill="#1d4e6b" stroke="#1d4e6b"></path><path d="M695 95L634 0L580 128Z" fill="#297ea6" stroke="#297ea6"></path><path d="M609 465L695 482L731 367Z" fill="#15384f" stroke="#15384f"></path><path d="M664 600L695 482L609 465Z" fill="#277297" stroke="#277297"></path><path d="M731 367L804 311L668 293Z" fill="#19435d" stroke="#19435d"></path><path d="M720 204L814 129L695 95Z" fill="#00101c" stroke="#00101c"></path><path d="M836 414L804 311L731 367Z" fill="#205a7a" stroke="#205a7a"></path><path d="M804 311L809 217L720 204Z" fill="#19435d" stroke="#19435d"></path><path d="M695 95L707 0L634 0Z" fill="#19435d" stroke="#19435d"></path><path d="M788 0L707 0L695 95Z" fill="#081a28" stroke="#081a28"></path><path d="M809 217L814 129L720 204Z" fill="#297ea6" stroke="#297ea6"></path><path d="M900 183L814 129L809 217Z" fill="#205a7a" stroke="#205a7a"></path><path d="M170 305L227 408L292 329Z" fill="#1d4e6b" stroke="#1d4e6b"></path><path d="M291 416L262 529L392 468Z" fill="#081a28" stroke="#081a28"></path><path d="M170 305L292 329L293 208Z" fill="#1d4e6b" stroke="#1d4e6b"></path><path d="M424 0L286 0L303 76Z" fill="#081a28" stroke="#081a28"></path><path d="M164 203L170 305L293 208Z" fill="#246688" stroke="#246688"></path><path d="M392 468L514 600L517 474Z" fill="#19435d" stroke="#19435d"></path><path d="M517 474L613 600L609 465Z" fill="#297ea6" stroke="#297ea6"></path><path d="M360 600L514 600L392 468Z" fill="#0c2435" stroke="#0c2435"></path><path d="M164 203L293 208L204 77Z" fill="#1d4e6b" stroke="#1d4e6b"></path><path d="M204 77L293 208L303 76Z" fill="#1d4e6b" stroke="#1d4e6b"></path><path d="M286 0L204 77L303 76Z" fill="#00101c" stroke="#00101c"></path><path d="M838 507L836 414L695 482Z" fill="#0c2435" stroke="#0c2435"></path><path d="M695 482L836 414L731 367Z" fill="#112e42" stroke="#112e42"></path><path d="M804 311L900 317L809 217Z" fill="#0c2435" stroke="#0c2435"></path><path d="M514 600L613 600L517 474Z" fill="#112e42" stroke="#112e42"></path><path d="M814 129L788 0L695 95Z" fill="#0c2435" stroke="#0c2435"></path><path d="M193 518L262 529L227 408Z" fill="#00101c" stroke="#00101c"></path><path d="M227 408L262 529L291 416Z" fill="#00101c" stroke="#00101c"></path><path d="M613 600L664 600L609 465Z" fill="#081a28" stroke="#081a28"></path><path d="M262 529L360 600L392 468Z" fill="#1d4e6b" stroke="#1d4e6b"></path><path d="M900 373L900 317L804 311Z" fill="#0c2435" stroke="#0c2435"></path><path d="M814 129L900 70L788 0Z" fill="#1d4e6b" stroke="#1d4e6b"></path><path d="M900 317L900 183L809 217Z" fill="#15384f" stroke="#15384f"></path><path d="M204 77L128 187L164 203Z" fill="#0c2435" stroke="#0c2435"></path><path d="M164 203L61 287L170 305Z" fill="#297ea6" stroke="#297ea6"></path><path d="M900 476L900 373L836 414Z" fill="#19435d" stroke="#19435d"></path><path d="M836 414L900 373L804 311Z" fill="#081a28" stroke="#081a28"></path><path d="M813 600L838 507L695 482Z" fill="#15384f" stroke="#15384f"></path><path d="M215 600L290 600L262 529Z" fill="#00101c" stroke="#00101c"></path><path d="M262 529L290 600L360 600Z" fill="#19435d" stroke="#19435d"></path><path d="M98 406L193 518L227 408Z" fill="#00101c" stroke="#00101c"></path><path d="M98 406L227 408L170 305Z" fill="#112e42" stroke="#112e42"></path><path d="M900 183L900 70L814 129Z" fill="#00101c" stroke="#00101c"></path><path d="M204 77L61 113L128 187Z" fill="#205a7a" stroke="#205a7a"></path><path d="M286 0L164 0L204 77Z" fill="#081a28" stroke="#081a28"></path><path d="M61 287L98 406L170 305Z" fill="#1d4e6b" stroke="#1d4e6b"></path><path d="M900 600L900 476L838 507Z" fill="#205a7a" stroke="#205a7a"></path><path d="M838 507L900 476L836 414Z" fill="#19435d" stroke="#19435d"></path><path d="M128 187L61 287L164 203Z" fill="#205a7a" stroke="#205a7a"></path><path d="M0 194L61 287L128 187Z" fill="#00101c" stroke="#00101c"></path><path d="M664 600L813 600L695 482Z" fill="#112e42" stroke="#112e42"></path><path d="M137 600L215 600L193 518Z" fill="#112e42" stroke="#112e42"></path><path d="M193 518L215 600L262 529Z" fill="#297ea6" stroke="#297ea6"></path><path d="M900 70L900 0L788 0Z" fill="#112e42" stroke="#112e42"></path><path d="M164 0L61 113L204 77Z" fill="#00101c" stroke="#00101c"></path><path d="M164 0L76 0L61 113Z" fill="#19435d" stroke="#19435d"></path><path d="M63 524L137 600L193 518Z" fill="#205a7a" stroke="#205a7a"></path><path d="M63 524L193 518L98 406Z" fill="#1d4e6b" stroke="#1d4e6b"></path><path d="M0 115L0 194L61 113Z" fill="#112e42" stroke="#112e42"></path><path d="M61 113L0 194L128 187Z" fill="#1d4e6b" stroke="#1d4e6b"></path><path d="M61 287L0 363L98 406Z" fill="#081a28" stroke="#081a28"></path><path d="M813 600L900 600L838 507Z" fill="#081a28" stroke="#081a28"></path><path d="M0 194L0 335L61 287Z" fill="#205a7a" stroke="#205a7a"></path><path d="M0 335L0 363L61 287Z" fill="#1d4e6b" stroke="#1d4e6b"></path><path d="M0 515L63 524L98 406Z" fill="#297ea6" stroke="#297ea6"></path><path d="M0 0L0 115L61 113Z" fill="#112e42" stroke="#112e42"></path><path d="M76 0L0 0L61 113Z" fill="#1d4e6b" stroke="#1d4e6b"></path><path d="M0 363L0 515L98 406Z" fill="#297ea6" stroke="#297ea6"></path><path d="M63 524L0 600L137 600Z" fill="#15384f" stroke="#15384f"></path><path d="M0 515L0 600L63 524Z" fill="#1d4e6b" stroke="#1d4e6b"></path></g></svg>